<?xml version="1.0" standalone="no"?>
<!DOCTYPE svg PUBLIC "-//W3C//DTD SVG 20010904//EN"
 "http://www.w3.org/TR/2001/REC-SVG-20010904/DTD/svg10.dtd">
<svg version="1.0" xmlns="http://www.w3.org/2000/svg"
 width="32.000000pt" height="32.000000pt" viewBox="0 0 32.000000 32.000000"
 preserveAspectRatio="xMidYMid meet">
<metadata>
Created by potrace 1.10, written by Peter Selinger 2001-2011
</metadata>
<g transform="translate(0.000000,32.000000) scale(0.100000,-0.100000)"
fill="#000000" stroke="none">
<path d="M86 304 c-18 -18 -20 -30 -6 -39 6 -3 10 -15 10 -26 0 -18 -2 -19
-29 -5 -26 14 -30 14 -45 -3 -37 -41 -12 -174 30 -157 8 3 21 9 29 12 17 7 20
-13 5 -36 -6 -10 -4 -20 7 -32 22 -24 119 -25 144 -2 17 15 17 19 3 47 -15 28
-15 30 3 25 10 -3 25 -9 34 -12 30 -13 49 20 49 83 0 44 -4 62 -19 75 -18 16
-21 16 -43 2 -30 -20 -42 -10 -23 18 19 26 19 31 -1 50 -10 11 -34 16 -74 16
-40 0 -64 -5 -74 -16z m134 -23 c0 -5 -9 -12 -19 -16 -19 -6 -31 -33 -31 -74
0 -22 3 -23 42 -18 27 4 48 14 60 29 17 23 18 22 18 -39 0 -66 -7 -76 -28 -43
-9 15 -23 20 -53 20 l-42 0 6 -37 c4 -22 16 -45 29 -55 23 -17 22 -18 -42 -18
-63 0 -64 1 -44 18 13 10 24 32 26 55 l4 37 -39 0 c-28 0 -44 -6 -58 -22 -18
-23 -18 -23 -18 42 -1 64 0 65 17 42 12 -15 33 -25 60 -29 l41 -6 -5 39 c-4
22 -15 46 -25 56 -10 9 -19 19 -19 22 0 3 27 6 60 6 33 0 60 -4 60 -9z"/>
</g>
</svg>
